<svg version="1.1" xmlns="http://www.w3.org/2000/svg" xmlns:xlink="http://www.w3.org/1999/xlink" width="79.02116" height="80.14847" viewBox="0,0,79.02116,80.14847"><g transform="translate(-200.46726,-139.88007)"><g data-paper-data="{&quot;isPaintingLayer&quot;:true}" stroke="none" stroke-linecap="butt" stroke-linejoin="miter" stroke-miterlimit="10" stroke-dasharray="" stroke-dashoffset="0" style="mix-blend-mode: normal"><path d="M200.55711,183.54871c-0.14408,-0.62025 -0.10536,-7.27454 0.04839,-8.31396c0.07365,-0.49891 0.23623,-1.71304 0.36097,-2.69816c0.34916,-2.75731 0.44368,-2.95653 1.8427,-3.88183c1.11014,-0.73416 2.20837,-1.22809 3.63765,-1.63626l1.2547,-0.3584l5.95762,-0.05601c3.86728,-0.03632 6.21253,-0.09369 6.6852,-0.16354c0.5366,-0.07901 1.78423,-0.08979 4.74791,-0.04011c2.21116,0.03701 4.26455,0.07055 4.56286,0.07485c1.3136,0.01853 1.22777,-0.69203 -0.18703,-1.54816c-1.92915,-1.16767 -4.23641,-2.74391 -5.88162,-4.01761c-1.82366,-1.41219 -3.34188,-4.40074 -3.098,-6.09919c0.2447,-1.70453 4.61122,-5.96742 9.65125,-9.42153c0.44397,-0.30433 1.17477,-0.83691 1.62413,-1.18391c0.44937,-0.34674 1.15602,-0.87858 1.57028,-1.18164c0.41426,-0.30306 1.23776,-0.90599 1.82995,-1.33996c2.79258,-2.0471 3.41576,-2.19541 5.12681,-1.22228c0.236,0.13438 0.75142,0.42736 1.14501,0.65089c0.91697,0.52076 2.92717,1.86679 3.83874,2.57049c0.38894,0.30014 1.16262,0.86915 1.71947,1.26456c1.20534,0.85571 3.64594,2.71993 4.62121,3.52984c0.38359,0.31843 1.01288,0.82642 1.39889,1.12896c0.38602,0.30279 1.17703,0.95457 1.75756,1.44839c0.58079,0.49384 1.2058,1.01905 1.38848,1.16739c0.18293,0.14807 0.62795,0.5117 0.98879,0.80781c0.36083,0.29611 0.97798,0.77757 1.37145,1.06977c0.39372,0.2922 0.99738,0.76037 1.34179,1.04001c0.34442,0.27991 1.02858,0.79702 1.52056,1.14908c0.49198,0.35233 1.18029,0.91877 1.52936,1.25915c0.34907,0.34011 0.96608,0.89395 1.37138,1.23046c0.40504,0.33651 0.95178,0.88278 1.21496,1.21398c0.51235,0.64458 1.07667,1.15244 2.01431,1.81273c0.32225,0.22709 0.8856,0.68986 1.2522,1.02869c0.36631,0.33882 1.01564,0.91023 1.44263,1.26985c0.42726,0.3599 0.78936,0.691 0.80491,0.73585c0.02795,0.08173 1.19016,1.41862 2.1358,2.45706c0.50695,0.55706 1.84092,2.32998 2.28156,3.03197c0.13323,0.21266 0.44897,0.64897 0.70156,0.96979c0.54777,0.69531 1.10137,1.66162 1.72158,3.0046c1.25915,2.72579 1.5489,3.96098 1.59889,6.81773l0.03645,2.0668l-0.32202,1.2491c-0.3589,1.39247 -0.41277,1.55173 -0.99679,2.93792c-0.669,1.58835 -2.00175,3.99076 -2.66045,4.79555c-0.18103,0.22131 -0.64524,0.8454 -1.03161,1.38663c-0.3861,0.54123 -0.96852,1.26557 -1.29404,1.6099c-0.32552,0.34433 -1.04969,1.1368 -1.60937,1.76094c-0.55943,0.62442 -1.05235,1.1474 -1.0948,1.16243c-0.22183,0.07779 -2.03677,1.86962 -2.45684,2.4251c-0.86408,1.143 -2.60452,2.67989 -5.42959,4.79428c-1.40165,1.04913 -7.28976,4.94224 -9.44897,6.2476c-0.35814,0.21645 -1.09518,0.68194 -1.63788,1.03407c-0.5427,0.35212 -1.4308,0.91357 -1.97347,1.24739c-0.54239,0.33382 -1.2489,0.7763 -1.56963,0.98329c-0.32046,0.207 -0.90585,0.54949 -1.30031,0.7611c-0.39473,0.21162 -0.98011,0.55622 -1.30137,0.76559c-1.151,0.75105 -5.09807,2.76985 -6.54543,3.34796c-2.48553,0.99288 -5.39985,-0.27778 -7.45587,-3.25016c-0.18667,-0.26978 -0.61504,-0.87416 -0.95166,-1.34285c-0.3369,-0.46896 -0.84611,-1.21562 -1.1316,-1.65955c-0.2855,-0.44419 -0.82195,-1.23811 -1.19213,-1.76441c-0.36992,-0.5263 -1.1551,-1.7129 -1.74458,-2.63713c-0.58922,-0.92395 -1.45867,-2.26929 -1.93162,-2.98991c-2.08055,-3.16812 -2.337,-3.95008 -1.77643,-5.41375c0.40036,-1.0453 2.49435,-3.15265 3.93848,-3.96357c1.71649,-0.96364 1.9019,-1.12714 1.903,-1.67949c0.00098,-0.49135 -0.52417,-0.5587 -5.10502,-0.6556c-3.08854,-0.06528 -5.39936,0.01072 -8.55593,0.28153c-0.88687,0.07593 -2.61194,0.15362 -3.83334,0.17241l-2.22058,0.03402l-1.26871,-0.32921c-2.8846,-0.74875 -4.83017,-2.72228 -5.82244,-5.90681c-0.59653,-1.9149 -0.70202,-2.34044 -0.85939,-3.47435c-0.09307,-0.66841 -0.20595,-1.37425 -0.25091,-1.56817M205.38665,173.01474c-0.19726,1.31722 -0.33909,9.02006 -0.18702,10.15156c0.15417,1.14875 1.32222,4.47309 1.91689,5.45647c0.53388,0.88302 1.70023,2.00541 2.33748,2.24957c0.6391,0.24524 2.26236,0.28718 13.29347,0.34469c15.14037,0.07897 16.18637,0.12958 16.53107,0.79955c0.80855,1.57087 -1.2953,3.57001 -7.87767,7.48588c-2.69093,1.60075 -3.29327,1.93552 -3.91025,2.17242c-1.85361,0.71226 -1.75328,1.32606 0.68584,4.19606c0.23095,0.27146 0.70435,0.8974 1.05233,1.39078c0.34797,0.49337 0.84972,1.13927 1.11482,1.43545c0.26537,0.29619 1.12162,1.3461 1.90297,2.33301c0.7816,0.98692 1.6312,2.0575 1.88829,2.37886c0.68164,0.85228 2.38817,2.49335 2.66618,2.56365c0.68698,0.174 2.61943,-0.71683 6.10366,-2.81372c0.54265,-0.32666 1.34999,-0.80819 1.79386,-1.07036c0.44415,-0.26217 1.17054,-0.71097 1.61447,-0.99725c0.44419,-0.28629 1.01689,-0.65214 1.27257,-0.81259c1.31528,-0.82549 6.5914,-4.45626 8.14651,-5.60611c0.44428,-0.32845 1.3426,-0.95936 1.99632,-1.40221c0.65372,-0.44285 1.54199,-1.08171 1.97356,-1.41975c0.43183,-0.33829 1.22902,-0.91317 1.77174,-1.27775c0.54272,-0.36459 1.26924,-0.872 1.61473,-1.1272c0.34549,-0.25546 0.91137,-0.66136 1.2579,-0.90198c1.71881,-1.19486 3.97105,-3.13883 5.78875,-4.99641c2.40599,-2.45861 4.00472,-5.00236 4.69563,-7.47101c0.42251,-1.50928 0.25749,-6.6605 -0.27734,-8.65881c-0.09449,-0.35258 -0.25307,-1.01715 -0.35239,-1.47715c-0.31135,-1.44021 -1.99279,-4.4898 -3.41336,-6.1905c-1.85466,-2.22023 -2.38845,-2.75004 -4.14777,-4.11493c-2.6137,-2.02764 -2.98329,-2.32032 -3.74699,-2.9662c-0.44262,-0.3745 -1.04623,-0.85725 -1.34146,-1.07237c-0.29524,-0.21538 -1.16049,-1.00384 -1.92268,-1.75234c-1.39841,-1.37291 -2.87312,-2.64944 -4.12235,-3.56809c-0.37387,-0.27493 -0.88404,-0.68192 -1.13365,-0.90436c-0.24935,-0.22271 -0.72857,-0.5896 -1.06435,-0.81566c-0.65489,-0.44068 -1.5636,-1.10701 -2.41136,-1.76817c-1.27533,-0.99427 -2.52156,-1.95241 -2.85915,-2.1981c-0.59021,-0.42941 -1.81716,-1.35411 -2.54099,-1.91533c-0.36907,-0.28606 -0.87216,-0.65591 -1.11817,-0.82186c-0.24601,-0.16622 -0.81976,-0.60117 -1.27485,-0.96669c-1.94427,-1.56173 -4.09135,-2.88522 -4.80185,-2.95982c-0.56416,-0.05946 -1.93431,0.62511 -2.98397,1.49039c-0.87304,0.71978 -3.50648,3.01167 -4.15921,3.61974c-0.42214,0.39346 -1.08864,0.99141 -1.48122,1.32898c-1.16529,1.00267 -4.26712,4.01515 -4.40289,4.27634c-0.34365,0.66091 -0.05917,1.21647 0.99078,1.93399c0.3935,0.26913 1.18859,0.87901 1.76676,1.35535c0.57818,0.47607 1.42984,1.16905 1.89234,1.53935c0.46277,0.37056 1.13097,0.91603 1.48517,1.2124c0.3542,0.29637 0.82942,0.66987 1.0561,0.82996c0.22667,0.15981 0.67514,0.52558 0.99648,0.81259c0.32134,0.28675 0.92649,0.8 1.34451,1.14024c1.46612,1.19273 1.739,1.44757 2.8315,2.64194c1.5333,1.67627 1.87149,2.55704 1.40683,3.66238c-0.4889,1.16365 -2.53324,1.64985 -5.44381,1.29483c-0.58456,-0.07117 -1.70346,-0.12299 -2.50799,-0.11584c-1.69365,0.01518 -9.94117,-0.24706 -10.06035,-0.31968c-0.0445,-0.02714 -1.95201,-0.08 -4.23873,-0.11717c-2.28674,-0.03717 -4.35834,-0.106 -4.60301,-0.15289c-0.63695,-0.12192 -1.57382,-0.10735 -2.46879,0.03856c-0.426,0.06943 -1.33307,0.16944 -2.01571,0.22244c-1.87636,0.14528 -2.00336,0.27629 -2.32021,2.39488" data-paper-data="{&quot;index&quot;:null}" fill="#790000" fill-rule="evenodd" stroke-width="1"/><path d="M205.37365,173.01214c0.31685,-2.11858 0.44413,-2.25066 2.32048,-2.39595c0.68264,-0.053 1.58981,-0.15332 2.01582,-0.22274c0.89497,-0.14591 1.83194,-0.16082 2.46889,-0.0389c0.24465,0.0469 2.31653,0.11506 4.60325,0.15223c2.28673,0.03718 4.19461,0.08919 4.23911,0.11632c0.11918,0.07262 8.36923,0.33132 10.06288,0.31613c0.80454,-0.00714 1.92498,0.04335 2.50955,0.11451c2.91057,0.35503 4.96136,-0.13367 5.45026,-1.29732c0.46466,-1.10535 0.13016,-1.95989 -1.40314,-3.63615c-1.0925,-1.19437 -1.36364,-1.44963 -2.82977,-2.64236c-0.41803,-0.34025 -1.02255,-0.85371 -1.3439,-1.14047c-0.32134,-0.28702 -0.7694,-0.65294 -0.99607,-0.81275c-0.22667,-0.16008 -0.70152,-0.53376 -1.05572,-0.83013c-0.3542,-0.29637 -1.02195,-0.84204 -1.48471,-1.2126c-0.46251,-0.3703 -1.3137,-1.06353 -1.89189,-1.53959c-0.57819,-0.47633 -1.37287,-1.08643 -1.76639,-1.35556c-1.04997,-0.71751 -1.34789,-1.29593 -1.00424,-1.95683c0.13575,-0.26119 3.23989,-3.27473 4.40517,-4.27739c0.39259,-0.33757 1.05982,-0.93576 1.48195,-1.32922c0.65272,-0.60806 3.28803,-2.90034 4.16106,-3.62013c1.04966,-0.86527 2.42099,-1.54996 2.98515,-1.4905c0.71049,0.0746 2.85943,1.39813 4.80371,2.95986c0.45509,0.36551 1.0294,0.80054 1.27541,0.96675c0.24601,0.16595 0.7496,0.53588 1.11868,0.82193c0.72385,0.56121 1.952,1.48617 2.54221,1.91561c0.3376,0.24569 1.58526,1.20431 2.86059,2.19858c0.84774,0.66116 1.7577,1.32804 2.41258,1.76872c0.33578,0.22606 0.81554,0.59324 1.06489,0.81595c0.24961,0.22244 0.76035,0.62977 1.13422,0.90471c1.24923,0.91864 2.72595,2.19678 4.12436,3.56969c0.76219,0.7485 1.62828,1.53787 1.92352,1.75324c0.29523,0.21511 0.89934,0.69847 1.34195,1.07297c0.76373,0.64588 1.13442,0.94029 3.74811,2.96793c1.75932,1.36487 2.29401,1.8968 4.14869,4.11703c1.42057,1.7007 3.10259,4.75294 3.41395,6.19315c0.09931,0.46 0.25795,1.12514 0.35244,1.47774c0.53484,1.99831 0.69968,7.1528 0.27717,8.66208c-0.6909,2.46865 -2.29061,5.01558 -4.6966,7.47419c-1.81772,1.85759 -4.0715,3.80415 -5.7903,4.99902c-0.34653,0.24061 -0.91282,0.64702 -1.25831,0.90249c-0.34549,0.2552 -1.07257,0.76324 -1.6153,1.12783c-0.54272,0.36459 -1.34061,0.94014 -1.77244,1.27843c-0.43157,0.33803 -1.32068,0.9776 -1.9744,1.42045c-0.65372,0.44285 -1.55295,1.07439 -1.99724,1.40283c-1.55512,1.14984 -6.83514,4.78228 -8.15042,5.60777c-0.25568,0.16045 -0.82895,0.52642 -1.27314,0.81271c-0.44393,0.28629 -1.17104,0.73521 -1.61519,0.99738c-0.44389,0.26217 -1.25197,0.74378 -1.79463,1.07044c-3.48424,2.0969 -5.41902,2.98771 -6.10599,2.81372c-0.27802,-0.07029 -1.98567,-1.71152 -2.66731,-2.5638c-0.2571,-0.32136 -1.10761,-1.39215 -1.88921,-2.37907c-0.78134,-0.98692 -1.6386,-2.03713 -1.90397,-2.33332c-0.2651,-0.29619 -0.76748,-0.94231 -1.11546,-1.43569c-0.34797,-0.49337 -0.82201,-1.11959 -1.05296,-1.39106c-2.43912,-2.87 -2.52726,-3.5073 -0.67365,-4.21956c0.61698,-0.23689 1.21806,-0.5723 3.90898,-2.17306c6.58237,-3.91587 8.67991,-5.88967 7.87136,-7.46056c-0.34471,-0.66997 -1.40091,-0.72659 -16.54128,-0.80557c-11.03112,-0.05751 -12.65575,-0.10222 -13.29485,-0.34746c-0.63723,-0.24416 -1.80393,-1.36764 -2.33781,-2.25064c-0.59466,-0.98336 -1.7631,-4.30986 -1.91728,-5.45861c-0.15208,-1.13151 -0.01004,-8.83815 0.18722,-10.15538" data-paper-data="{&quot;noHover&quot;:false,&quot;origItem&quot;:[&quot;Path&quot;,{&quot;applyMatrix&quot;:true,&quot;segments&quot;:[[[265.92644,49.48444],[0,0],[-4.969,-0.734]],[[227.64144,48.85544],[4.266,-0.582],[-4.331,0.59]],[[207.07844,56.12544],[3.704,-2.25],[-3.326,2.02]],[[198.61244,64.95744],[0.916,-2.405],[-0.92,2.412]],[[197.41244,115.09244],[0.134,-41.601],[-0.184,57.098]],[[194.52144,177.44044],[2.524,-1.305],[-5.918,3.061]],[[166.23144,147.78844],[14.817,24.794],[-6.057,-10.136]],[[158.00944,133.05844],[0.898,2.325],[-2.7,-6.985]],[[142.19044,135.67644],[10.805,-9.22],[-1.022,0.873]],[[136.95344,139.65544],[1.858,-1.316],[-1.858,1.316]],[[131.54844,143.87044],[1.115,-1.002],[-1.115,1.003]],[[122.76444,151.06444],[3.716,-2.954],[-3.716,2.955]],[[113.80744,158.20344],[1.21,-0.972],[-3.209,2.577]],[[104.15944,168.27744],[0.263,-1.049],[-0.651,2.592]],[[114.81644,191.27444],[-7.934,-13.124],[1.236,2.044]],[[118.86644,198.03144],[-0.992,-1.672],[0.992,1.673]],[[122.63944,204.11244],[-1.083,-1.672],[1.083,1.673]],[[125.71344,208.90544],[-0.607,-0.963],[3.123,4.954]],[[146.91644,239.58544],[-4.348,-5.856],[1.242,1.673]],[[152.21944,247.10344],[-1.675,-2.462],[1.675,2.462]],[[157.58844,254.53544],[-1.278,-1.625],[1.279,1.626]],[[162.42044,261.20744],[-1.379,-2.044],[1.379,2.044]],[[166.68344,267.28844],[-0.965,-1.301],[0.966,1.301]],[[170.09444,272.02544],[-0.91,-1.305],[4.519,6.473]],[[188.98044,293.81844],[-7.019,-6.841],[9.29,9.055]],[[217.19044,311.47044],[-9.315,-2.587],[5.695,1.582]],[[249.84244,310.35944],[-7.532,2.032],[1.329,-0.359]],[[255.41044,309.01944],[-1.734,0.378],[5.429,-1.185]],[[278.73044,296.10044],[-6.403,5.37],[8.359,-7.011]],[[294.21744,280.42744],[-5.134,6.645],[7.627,-9.872]],[[305.37544,266.27444],[-2.43,2.885],[1.409,-1.672]],[[309.40944,261.20744],[-0.809,1.115],[0.81,-1.115]],[[316.00344,253.94344],[-2.817,2.88],[5.167,-5.284]],[[329.42844,238.37044],[-3.455,4.718],[1.034,-1.412]],[[332.83044,234.08844],[-0.837,0.943],[0.838,-0.942]],[[335.89844,230.06844],[-0.85,1.268],[1.657,-2.473]],[[342.54844,220.96144],[-2.487,3.202],[3.74,-4.817]],[[350.81644,210.16244],[-0.924,1.275],[1.615,-2.229]],[[358.02044,200.56544],[-2.111,2.734],[1.076,-1.394]],[[361.11144,196.34244],[-0.624,0.929],[0.625,-0.929]],[[364.74744,191.52744],[-1.375,1.719],[5.875,-7.344]],[[375.87344,173.39644],[-0.276,2.68],[0.22,-2.128]],[[370.23044,162.15444],[3.271,3.952],[-2.721,-3.287]],[[356.54844,146.49644],[2.298,2.457],[-1.487,-1.589]],[[351.52544,140.92044],[1.276,1.478],[-3.79,-4.387]],[[335.36544,124.34844],[0.986,0.51],[-2.495,-1.291]],[[328.07944,128.09944],[2.698,-3.965],[-1.012,1.486]],[[322.98144,134.77244],[1.792,-2.184],[-1.791,2.184]],[[317.19044,141.92044],[1.393,-1.747],[-1.394,1.748]],[[312.62944,147.53044],[1.115,-1.338],[-1.115,1.338]],[[309.50744,151.51944],[0.602,-0.856],[-0.601,0.856]],[[306.45044,155.28344],[1.08,-1.214],[-1.079,1.214]],[[302.16044,160.36244],[1.28,-1.579],[-4.487,5.538]],[[292.21844,171.06044],[4.496,-4.129],[-6.31,5.795]],[[278.41744,176.39344],[4.172,1.744],[-4.392,-1.835]],[[273.49344,155.87344],[-1.317,10.979],[0.264,-2.205]],[[273.91144,146.41444],[0.033,3.034],[-0.07,-6.387]],[[275.04144,108.47244],[-0.273,0.45],[0.102,-0.168]],[[275.45144,92.48644],[-0.123,8.624],[0.123,-8.624]],[[275.99344,75.12644],[-0.175,0.923],[0.455,-2.403]],[[275.82944,65.81644],[0.557,3.374],[-0.265,-1.606]],[[274.97544,58.21644],[0.205,2.574],[-0.562,-7.075]],[[265.92644,49.48444],[7.992,1.179],[0,0]]],&quot;fillColor&quot;:[0,0,0,1]}],&quot;index&quot;:null}" fill="#ff0000" fill-rule="nonzero" stroke-width="0.5"/><path d="M205.29601,174.06653c0.07884,-0.42161 0.18544,-1.20147 0.23585,-1.73289c0.13936,-1.46921 0.37795,-1.76213 1.32021,-1.63119c0.73779,0.10273 0.82382,0.30706 0.55632,1.18323c-0.07908,0.25852 -0.14427,0.83443 -0.14516,1.27972c-0.00089,0.4453 -0.06971,1.46362 -0.15384,2.26272c-0.11854,1.12465 -0.13564,2.25609 -0.11424,5.036l0.01755,3.57067l0.35805,1.1503c0.19813,0.6329 0.48841,1.38452 0.64753,1.67045c0.15911,0.28594 0.35232,0.73907 0.43007,1.00696c0.1865,0.64109 0.6043,1.37164 1.11398,1.94361c0.74202,0.83252 0.80523,1.11452 0.25187,1.11341c-1.07694,-0.00214 -2.87116,-2.02769 -3.39596,-3.83971c-0.03831,-0.13197 -0.19221,-0.522 -0.34043,-0.86634c-0.21852,-0.50729 -0.54965,-1.72516 -0.88969,-3.30907c-0.12112,-0.56325 -0.028,-8.10951 0.1079,-8.83788" data-paper-data="{&quot;noHover&quot;:false,&quot;origItem&quot;:[&quot;Path&quot;,{&quot;applyMatrix&quot;:true,&quot;segments&quot;:[[[207.554,24.26017],[0,0],[-5.138,-0.948]],[[145.392,23.66617],[3.97,-0.862],[-11.164,2.42]],[[122.102,29.93817],[3.574,-1.548],[-2.426,1.05]],[[116,32.34217],[0.93,-0.272],[-12.77,3.726]],[[88.972,56.30217],[0,-7.594],[0,3.902]],[[96.624,54.55217],[-5.86,5.244],[4.026,-3.602]],[[110.312,46.66017],[-4.518,1.324],[1.888,-0.552]],[[117.406,43.60817],[-2.014,1.126],[2.014,-1.126]],[[129.176,39.00617],[-4.46,1.406],[0,0]],[137.284,36.45217],[[162.604,36.20817],[0,0],[19.602,-0.19]],[[198.172,37.02217],[-7.932,-0.82],[5.636,0.582]],[[214.13,38.08017],[-3.14,0],[3.14,0]],[[223.156,39.08817],[-1.824,-0.554],[6.182,1.874]],[[231.292,35.16017],[-0.714,5.204],[0.91,-6.646]],[[219.774,25.89017],[10.362,0.962],[-3.748,-0.348]],[[207.554,24.26017],[2.974,0.55],[0,0]]],&quot;fillColor&quot;:[0,0,0,1]}],&quot;index&quot;:null}" fill="#ffffff" fill-rule="nonzero" stroke-width="0.5"/><path d="M225.53245,154.11935c0.25479,-0.32801 3.27032,-3.20347 4.09639,-3.9063c0.37578,-0.31941 1.03487,-0.91409 1.46365,-1.32098c0.42905,-0.40663 1.25081,-1.13389 1.82499,-1.61596c0.57446,-0.48179 1.50097,-1.25948 2.05815,-1.7273c2.77213,-2.32834 2.98329,-2.29744 7.36073,1.10832c0.49753,0.38718 1.18639,0.89888 1.53007,1.13726c0.34368,0.23838 0.8575,0.63281 1.14106,0.87672c0.28383,0.24393 0.77668,0.62403 1.09478,0.84459c1.28077,0.88814 1.6584,1.16717 2.70024,2.00146c0.59733,0.47848 1.23008,0.9694 1.40501,1.09076c0.1752,0.12163 0.80261,0.60584 1.39378,1.07595c0.59115,0.47038 1.25748,0.9523 1.47959,1.07104c0.22236,0.11875 0.65969,0.43744 0.97124,0.70838c0.31181,0.27093 0.93127,0.75527 1.37584,1.07633c0.44457,0.32104 1.0638,0.81086 1.37532,1.08852c0.31125,0.27766 0.77685,0.682 1.03351,0.89839c0.25694,0.21639 0.6963,0.68162 0.97614,1.03333c0.27958,0.35199 0.76046,0.84191 1.06774,1.08832c1.49548,1.19848 2.43142,1.96053 2.96978,2.41813c0.32501,0.27634 0.87794,0.69471 1.22809,0.92907c0.34989,0.23434 0.94395,0.69845 1.31872,1.03042c0.37502,0.33196 0.98922,0.82474 1.36436,1.09418c1.43976,1.0337 3.59864,3.31001 4.60216,4.85085c1.56532,2.40328 2.61225,4.51478 2.709,5.46118c0.0333,0.32563 0.1411,0.91813 0.23948,1.31556c0.60528,2.44287 0.59178,7.50697 -0.02334,8.91818c-0.10559,0.2418 -0.19187,0.49068 -0.19199,0.55266c-0.00052,0.26276 -0.88342,1.88864 -1.41306,2.60231c-0.31562,0.42491 -0.68186,0.93691 -0.81351,1.13716c-0.13164,0.19997 -0.37404,0.54814 -0.53808,0.7731c-0.34104,0.46744 -3.32945,3.41725 -4.08392,4.03101c-0.27588,0.22421 -0.8845,0.72876 -1.35151,1.12049c-0.46729,0.39146 -1.03183,0.83508 -1.2542,0.98474c-0.22236,0.14994 -0.96952,0.67172 -1.65906,1.15868c-0.68982,0.48723 -1.62483,1.1367 -2.07604,1.44275c-0.45121,0.3058 -1.00418,0.70447 -1.22795,0.88513c-0.2235,0.18067 -0.88109,0.66266 -1.4597,1.07034c-0.5789,0.40795 -1.23589,0.87801 -1.4591,1.04466c-0.2232,0.16637 -0.51396,0.36398 -0.64537,0.43891c-0.1314,0.07466 -0.72915,0.49515 -1.32724,0.93378c-0.59809,0.43863 -1.19071,0.87254 -1.31621,0.96446c-0.12523,0.09192 -0.82368,0.57383 -1.5507,1.07095c-0.72702,0.49712 -2.10293,1.43684 -3.05583,2.08849c-0.95263,0.65137 -1.91772,1.27678 -2.14324,1.38978c-0.22552,0.11274 -0.80026,0.47698 -1.27657,0.8094c-0.47659,0.33243 -1.25652,0.82179 -1.73271,1.08764c-1.47581,0.82442 -3.03215,1.73869 -3.55623,2.09043c-0.48143,0.32325 -2.22003,1.15929 -2.94685,1.41736c-0.49057,0.17446 -0.82693,0.01186 -1.67314,-0.80803c-0.66357,-0.64299 -1.09864,-1.16938 -2.44284,-2.95804c-0.35426,-0.47179 -0.91348,-1.17448 -1.24204,-1.56133c-1.2056,-1.42051 -1.67851,-1.99782 -2.25185,-2.75114c-0.32229,-0.42348 -0.78164,-1.01903 -1.02007,-1.3227c-2.16264,-2.75374 -2.36893,-3.1074 -1.9569,-3.36448c0.34241,-0.21329 0.58332,-0.00872 2.2678,2.24684c0.2997,0.40108 0.83669,1.09832 1.19396,1.54964c0.35753,0.45158 0.844,1.10867 1.08153,1.46138c0.23781,0.35244 0.50522,0.70096 0.59456,0.77471c0.08905,0.07376 0.44834,0.52376 0.79829,1.00012c1.09336,1.48793 3.47778,4.11185 4.03876,4.44392c0.71387,0.42238 1.42568,0.18434 4.04126,-1.34713c0.28519,-0.16706 0.85246,-0.48781 1.26093,-0.7123c0.40847,-0.22449 0.93692,-0.53696 1.17467,-0.69413c0.23774,-0.15745 0.67449,-0.40971 0.97124,-0.56113c0.29675,-0.15112 1.31832,-0.80628 2.27094,-1.45522c0.95263,-0.64921 2.10029,-1.40861 2.55145,-1.68745c0.45142,-0.27885 1.1275,-0.72998 1.50374,-1.00252c0.37595,-0.27252 1.1717,-0.82579 1.76891,-1.22992c0.59748,-0.40387 1.253,-0.86977 1.45816,-1.03539c0.20488,-0.1656 0.59784,-0.43639 0.87333,-0.60185c0.27576,-0.16546 1.15676,-0.77626 1.95914,-1.35732c0.80238,-0.58105 1.77123,-1.27747 2.15446,-1.54781c0.3835,-0.27036 1.11493,-0.81064 1.62696,-1.20147c0.51202,-0.39083 1.19895,-0.87403 1.52787,-1.07441c0.61925,-0.37741 0.72529,-0.45551 2.72591,-2.00437c3.63415,-2.81387 6.63403,-5.93413 7.55065,-7.85516c0.1253,-0.26251 0.33391,-0.64455 0.46395,-0.84965c0.99111,-1.56328 1.16093,-2.52312 1.12028,-6.33176l-0.03272,-3.07545l-0.32583,-1.31989c-0.80201,-3.2515 -1.8808,-5.32917 -4.09367,-7.89033c-0.35224,-0.40737 -0.81258,-0.94672 -1.02364,-1.19885c-0.35248,-0.42165 -1.5105,-1.41698 -3.47713,-2.99019c-0.42486,-0.34014 -0.95631,-0.78493 -1.18174,-0.98966c-0.22544,-0.20473 -0.67011,-0.55652 -0.98928,-0.78246c-0.68411,-0.48457 -2.15445,-1.72316 -3.01629,-2.54038c-0.33623,-0.31868 -0.95887,-0.85201 -1.38481,-1.18594c-0.68266,-0.5347 -2.22321,-1.83761 -3.92726,-3.31866c-0.30454,-0.26498 -1.1588,-0.93328 -1.89963,-1.48561c-0.74083,-0.55232 -1.55815,-1.16837 -1.81782,-1.36913c-0.25966,-0.20076 -0.95827,-0.73118 -1.55324,-1.17866c-0.5947,-0.44747 -1.46247,-1.10469 -1.92907,-1.46056c-0.46687,-0.35613 -1.20246,-0.90531 -1.63573,-1.22067c-0.43354,-0.31565 -1.28994,-0.95241 -1.90401,-1.4153c-1.95471,-1.47293 -3.7902,-2.7083 -4.5441,-3.05638c-0.8056,-0.37189 -1.0048,-0.29297 -3.16307,1.24938c-0.50145,0.35852 -1.15971,0.8819 -1.46347,1.16345c-0.30403,0.28156 -0.98045,0.87922 -1.50445,1.32852c-0.52373,0.44929 -1.28001,1.12647 -1.68152,1.50567c-3.13047,2.95636 -4.90484,4.53448 -5.09781,4.5341c-0.61149,-0.00122 -0.83632,-0.5738 -0.42293,-1.1055" data-paper-data="{&quot;noHover&quot;:false,&quot;origItem&quot;:[&quot;Path&quot;,{&quot;applyMatrix&quot;:true,&quot;segments&quot;:[[[357.838,176.67617],[0,0],[-3.952,-3.06]],[[349.784,179.69217],[0,-4.538],[0,1.432]],[[383.52,217.47217],[-21.986,-23.188],[2.82,2.974]],[[394.722,229.93417],[-3.342,-3.88],[3.342,3.882]],[[404.606,241.08417],[-2.094,-2.252],[2.094,2.25]],[[413.264,251.93217],[-2.668,-3.716],[11.478,15.994]],[[422.586,275.39617],[2.748,-5.984],[-2.572,5.6]],[[399.974,309.17417],[10.902,-14.528],[-3.426,4.564]],[[389.5,323.33017],[2.336,-3.222],[-2.334,3.22]],[[380.466,335.49217],[2.636,-3.47],[-2.634,3.468]],[[369.656,349.83617],[3.312,-4.42],[-3.312,4.422]],[[360.932,361.38617],[1.486,-1.93],[-1.486,1.93]],[[350.798,374.90417],[4.088,-5.506],[-4.088,5.506]],[[339.8,389.03217],[1.962,-2.264],[-10.966,12.668]],[[315.224,418.24617],[3.958,-5.074],[-2.472,3.166]],[[306.44,428.54817],[2.36,-2.5],[-6.052,6.408]],[[287.622,450.98617],[3.586,-5.084],[-1.672,2.372]],[[281.826,458.34417],[1.516,-1.676],[-1.516,1.676]],[[274.494,467.13417],[2.518,-3.158],[-11.646,14.618]],[[252.338,492.99617],[3.124,-2.622],[-1.868,1.57]],[[243.45,500.61417],[3.018,-2.62],[-18.974,16.46]],[[184.918,531.12217],[24.118,-6],[0,0]],[175.122,533.56017],[[152.286,533.84817],[0,0],[-28.264,0.358]],[[105.254,525.62217],[11.616,7.332],[-1.524,-0.962]],[[98.938,522.19017],[1.95,0.926],[-14.27,-6.774]],[[40.494,466.24417],[20.936,26.928],[-11.524,-14.824]],[[25.57,446.03217],[2.81,4.59],[-1.492,-2.438]],[[17.57,434.70217],[2.908,3.794],[-2.908,-3.794]],[[8.626,422.63817],[2.012,2.842],[-2.012,-2.84]],[[-2.896,406.66217],[4.324,5.946],[-4.324,-5.946]],[[-13,392.13417],[1.232,2.044],[-1.232,-2.042]],[[-17.48,385.65817],[1.232,1.518],[-1.232,-1.52]],[[-25.186,374.84617],[3.006,4.428],[-3.008,-4.426]],[[-34.34,361.73017],[2.028,2.786],[-2.028,-2.788]],[[-41.802,350.58017],[2.076,3.346],[-2.076,-3.344]],[[-54.362,331.66217],[4.832,7.06],[-4.83,-7.06]],[[-65.194,314.82417],[1.126,2.2],[-1.128,-2.2]],[[-69.372,307.62217],[1.172,1.762],[-1.17,-1.762]],[[-74.54,298.91217],[1.672,3.028],[-1.672,-3.028]],[[-79.844,289.56217],[1.244,2.114],[-11.404,-19.388]],[[-89.898,259.58217],[-3.124,5.304],[2.456,-4.168]],[[-56.972,229.53017],[-11.026,8.136],[3.53,-2.604]],[[-49.56,223.58817],[-0.546,0.662],[0.546,-0.664]],[[-43.818,219.16217],[-2.612,1.77],[2.614,-1.768]],[[-32.986,211.11017],[-3.346,2.66],[3.344,-2.658]],[[-21.5,202.22217],[-2.972,2.23],[16.714,-12.534]],[[-4.712,185.49417],[1.588,2.538],[-1.914,-3.054]],[[-29.644,200.05817],[20.404,-16.09],[-2.25,1.774]],[[-39.442,207.64417],[3.138,-2.398],[-5.582,4.266]],[[-59.82,224.38817],[10.524,-8.968],[-2.866,2.444]],[[-71.386,233.62417],[3.496,-2.636],[-13.254,10.002]],[[-93.298,251.78817],[4.762,-4.934],[-6.072,6.292]],[[-99.268,264.21217],[-1.302,-3.638],[1.926,5.39]],[[-88.704,286.05417],[-2.406,-3.568],[2.618,3.884]],[[-73.136,312.40617],[-6.14,-10.94],[1.98,3.53]],[[-65.038,325.24417],[-2.474,-3.532],[2.474,3.53]],[[-59.012,334.70217],[-0.84,-1.672],[0.842,1.672]],[[-48.666,350.58017],[-4.848,-7.06],[4.85,7.062]],[[-33.122,373.21617],[-3.7,-5.388],[3.7,5.388]],[[-25.152,384.70217],[-0.684,-0.928],[0.684,0.93]],[[-17.976,394.45017],[-3.264,-4.432],[3.264,4.432]],[[-11.028,404.28017],[-0.556,-0.974],[0.558,0.974]],[[-7.762,409.06017],[-1.238,-1.654],[1.24,1.654]],[[0.01,419.86617],[-3.036,-4.29],[3.034,4.288]],[[7.972,430.67617],[-1.344,-1.656],[1.344,1.658]],[[14.556,439.77017],[-2.276,-3.344],[2.278,3.344]],[[25.288,455.14617],[-3.626,-5.112],[3.624,5.11]],[[33.906,467.43417],[-1.116,-1.648],[1.114,1.648]],[[41.228,476.72217],[-2.912,-3.462],[2.914,3.46]],[[49.558,486.73017],[-1.668,-2.044],[4.566,5.59]],[[79.514,516.96417],[-3.474,-2.524],[1.672,1.214]],[[85.256,520.94417],[-1.486,-0.974],[1.488,0.974]],[[93.702,526.96217],[-3.158,-2.336],[5.304,3.92]],[[113.024,537.40617],[-1.95,0],[0.46,0]],[[117.126,538.82217],[-1.796,-0.78],[10.482,4.544]],[[183.274,538.86017],[-18.12,4.528],[2.948,-0.736]],[[193.028,537.06417],[-2.416,0.252],[7.022,-0.732]],[[233.492,516.88617],[-17.812,11.652],[11.42,-7.47]],[[269.398,482.67617],[-7.65,10.7],[1.994,-2.788]],[[277.492,472.54017],[-2.458,2.788],[2.458,-2.786]],[[285.114,462.74417],[-1.734,2.6],[1.734,-2.602]],[[291.986,453.62217],[-2.046,2.416],[3.388,-4.002]],[[309.878,431.56217],[-8.872,11.116],[1.824,-2.284]],[[317.936,423.62817],[-2.608,2.08],[2.606,-2.082]],[[325.588,416.37417],[-1.602,1.91],[1.602,-1.908]],[[332.238,408.69617],[-2.056,2.314],[2.056,-2.316]],[[340.294,398.48017],[-2.376,3.304],[2.376,-3.304]],[[348.26,388.26017],[-2.006,2.318],[2.006,-2.316]],[[353.502,381.04617],[-0.878,1.652],[0.878,-1.65]],[[361.428,370.05617],[-3.482,4.394],[3.48,-4.394]],[[369.392,359.70217],[-0.9,1.302],[0.898,-1.3]],[[377.466,349.26417],[-3.542,4.44],[6.176,-7.744]],[[392.28,329.20417],[-6.572,9.518],[1.632,-2.364]],[[398.532,321.07017],[-1.806,2.11],[1.806,-2.108]],[[405.022,312.59217],[-1.764,2.554],[1.764,-2.554]],[[413.44,301.22417],[-2.866,3.698],[25.21,-32.536]],[[421.562,246.60017],[17.32,20.538],[-3.48,-4.128]],[[408.716,231.35817],[3.584,4.256],[-3.586,-4.254]],[[396.7,217.84417],[3.024,3.178],[-3.026,-3.176]],[[386.878,207.00617],[2.376,2.784],[-5.228,-6.12]],[[357.838,176.67617],[2.438,1.886],[0,0]]],&quot;fillColor&quot;:[0,0,0,1]}],&quot;index&quot;:null}" fill="#ffffff" fill-rule="nonzero" stroke-width="0.5"/></g></g></svg>